<svg width="363" height="362" viewBox="0 0 363 362" fill="none" xmlns="http://www.w3.org/2000/svg">
<path fill-rule="evenodd" clip-rule="evenodd" d="M73.435 0C74.0376 0 82.1301 1.20374 108.474 5.58881V126.393H90.3947V165.945L92.8053 165.429C94.0966 165.171 106.235 163.193 144.545 156.916L144.804 223.122C144.976 259.579 144.976 305.665 144.632 361.983H126.553V338.338C126.553 324.753 126.208 314.693 125.778 314.693C125.347 314.693 114.672 325.011 102.103 337.736C89.4477 350.375 79.4613 360.951 79.8056 361.381C80.15 361.725 75.9316 361.983 60.2632 361.983V289.758H18.0789V361.983H0V180.991L71.8853 168.868L71.541 87.2714C71.3688 42.303 71.4549 4.29908 71.7992 2.75141C72.1436 1.28972 72.9184 0 73.435 0V0ZM31.8534 258.805H49.0714V223.552H31.8534V258.805ZM362.009 205.066L362.44 361.983H343.93L343.156 308.932C342.725 279.698 342.639 255.279 342.897 254.764C343.414 253.904 340.917 253.646 320.256 253.646L319.825 307.384L301.316 307.814V361.983H283.237V307.814H235.026V361.983H216.947L216.775 283.911C216.689 240.921 216.947 205.496 217.378 205.238C217.808 204.894 250.523 204.722 362.009 205.066ZM235.887 258.805H252.675V223.552H235.887V258.805Z" fill="#EF7422"/>
<path fill-rule="evenodd" clip-rule="evenodd" d="M259.132 90.2807H313.368V204.636L217.378 205.066L216.947 223.552L199.299 223.122V126.823L259.132 126.393V90.2807ZM277.038 169.126L277.211 186.58H295.289V150.468C282.204 150.468 278.071 150.726 277.641 151.07C277.211 151.328 276.952 159.496 277.038 169.126ZM54.2368 108.337H72.3158L71.8853 168.868L37.4492 174.715C18.5094 177.81 2.32444 180.475 1.54962 180.475C0.17218 180.561 0 179.616 0 162.505H18.0789V144.449H36.1579V126.393H54.2368V108.337ZM18.0789 289.758H60.2632V361.983H18.0789V289.758ZM144.632 289.758H162.883L163.141 307.384L180.789 307.814L181.22 325.44L198.868 325.87L199.299 343.497L216.947 343.927V361.983H144.632V289.758ZM343.07 307.384L343.5 361.983H301.316V307.814L310.614 307.556C315.693 307.384 325.077 307.298 343.07 307.384ZM235.026 307.814H283.237V361.983H235.026V307.814ZM125.864 314.693C126.294 314.693 126.553 325.355 126.553 361.983H103.567C90.8252 361.983 80.15 361.725 79.8056 361.381C79.4613 361.037 89.5338 350.375 102.189 337.65C114.844 325.011 125.52 314.693 125.864 314.693Z" fill="#252B6D"/>
<path fill-rule="evenodd" clip-rule="evenodd" d="M108.043 5.50282L217.378 23.6449L217.808 126.393L199.299 126.823V223.122L216.947 223.552V343.927L199.299 343.497L198.868 325.87L181.22 325.44L180.789 307.814L163.141 307.384L162.711 289.758L145.062 289.328L144.632 156.916L119.838 160.958C106.235 163.193 94.0966 165.171 90.3947 165.945V126.393H108.474L108.043 5.50282ZM127.414 84.262H143.771V49.0095H127.414V84.262ZM181.65 84.262H198.008L198.438 49.0095H181.65V84.262ZM163.571 192.599H180.359V157.346H163.571V192.599ZM313.368 126.393L362.009 126.823V144.879L344.361 145.309V204.636H313.368V126.393Z" fill="#EFBF54"/>
<path fill-rule="evenodd" clip-rule="evenodd" d="M78.3421 289.758H126.036L102.878 312.973C90.0504 325.784 79.2891 336.188 78.9447 336.188C78.6004 336.188 78.3421 325.784 78.3421 312.973V289.758Z" fill="#252B6D"/>
</svg>
